<svg xmlns="http://www.w3.org/2000/svg" version="1.1" xmlns:xlink="http://www.w3.org/1999/xlink" xmlns:svgjs="http://svgjs.dev/svgjs" width="2000" height="1500" viewBox="0 0 2000 1500"><rect width="2000" height="1500" fill="#ffffff"></rect><g transform="matrix(0.75,0,0,0.75,249.090909090909,467.19005249582256)"><svg viewBox="0 0 396 149" data-background-color="#ffffff" preserveAspectRatio="xMidYMid meet" height="752" width="2000" xmlns="http://www.w3.org/2000/svg" xmlns:xlink="http://www.w3.org/1999/xlink"><g id="tight-bounds" transform="matrix(1,0,0,1,0.24000000000003752,0.2139754931248774)"><svg viewBox="0 0 395.5199999999999 130.5810299740285" height="130.5810299740285" width="395.5199999999999"><g><svg viewBox="0 0 740.363983393517 244.43135999999998" height="130.5810299740285" width="395.5199999999999"><g><rect width="16.103115926248307" height="214.2772009029345" x="286.5861137336343" y="15.077079548532737" fill="#77d4fc" opacity="1" stroke-width="0" stroke="transparent" fill-opacity="1" class="rect-qz-0" data-fill-palette-color="primary" rx="1%" id="qz-0" data-palette-color="#77d4fc"></rect></g><g transform="matrix(1,0,0,1,344.8439833935169,32.93351295711061)"><svg viewBox="0 0 395.52 178.56433408577877" height="178.56433408577877" width="395.52"><g id="textblocktransform"><svg viewBox="0 0 395.52 178.56433408577877" height="178.56433408577877" width="395.52" id="textblock"><g><svg viewBox="0 0 395.52 178.56433408577877" height="178.56433408577877" width="395.52"><g transform="matrix(1,0,0,1,0,0)"><svg width="395.52" viewBox="1.75 -36 110.74 50" height="178.56433408577877" data-palette-color="#77d4fc"><path d="M25.8 5.95L25.8 5.95Q23.5 5.95 21.55 4.67 19.6 3.4 17.8 1.85L17.8 1.85Q16.6 2.45 15.35 2.8 14.1 3.15 12.8 3.15L12.8 3.15Q11.1 3.15 10 2.63 8.9 2.1 8.33 1.35 7.75 0.6 7.53-0.13 7.3-0.85 7.3-1.25L7.3-1.25Q7.3-2.1 8.13-2.98 8.95-3.85 10.95-3.85L10.95-3.85Q13-3.85 14.95-2.88 16.9-1.9 18.9-0.65L18.9-0.65Q21.15-2.65 22.88-5.75 24.6-8.85 25.78-12.4 26.95-15.95 27.58-19.38 28.2-22.8 28.2-25.45L28.2-25.45Q28.2-29.55 26.65-32.1 25.1-34.65 21.6-34.65L21.6-34.65Q18.7-34.65 16.2-32.93 13.7-31.2 11.68-28.3 9.65-25.4 8.2-21.83 6.75-18.25 5.98-14.45 5.2-10.65 5.2-7.2L5.2-7.2Q5.2-6.15 5.3-5.1 5.4-4.05 5.6-3L5.6-3Q4.05-3 3.23-4 2.4-5 2.08-6.58 1.75-8.15 1.75-9.95L1.75-9.95Q1.75-13.7 2.75-17.43 3.75-21.15 5.58-24.5 7.4-27.85 9.88-30.43 12.35-33 15.33-34.5 18.3-36 21.55-36L21.55-36Q26.35-36 29.03-32.73 31.7-29.45 31.7-23.85L31.7-23.85Q31.7-20.7 30.85-17.28 30-13.85 28.48-10.58 26.95-7.3 24.9-4.5 22.85-1.7 20.4 0.2L20.4 0.2Q22.1 1.15 23.93 1.83 25.75 2.5 27.8 2.5L27.8 2.5Q28.9 2.5 29.43 2.3 29.95 2.1 30.7 1.9L30.7 1.9Q30.2 3.65 29.33 4.53 28.45 5.4 27.53 5.68 26.6 5.95 25.8 5.95ZM12.8 1.9L12.8 1.9Q13.85 1.9 14.83 1.63 15.8 1.35 16.7 0.85L16.7 0.85Q15.15-0.5 13.63-1.53 12.1-2.55 10.45-2.55L10.45-2.55Q9.3-2.55 8.95-2.08 8.6-1.6 8.6-1.2L8.6-1.2Q8.6-0.75 8.95-0.03 9.3 0.7 10.2 1.3 11.1 1.9 12.8 1.9ZM37.15 1.5L37.15 1.5Q35.45 1.5 34.42-0.03 33.4-1.55 33.4-3.55L33.4-3.55Q33.4-5 33.87-6.9 34.35-8.8 35.05-10.65 35.75-12.5 36.5-13.7 37.25-14.9 37.8-14.9L37.8-14.9Q38.05-14.9 38.65-14.63 39.25-14.35 39.65-13.9L39.65-13.9Q39.1-13.05 38.3-11.3 37.5-9.55 36.9-7.55 36.3-5.55 36.3-3.85L36.3-3.85Q36.3-3.45 36.4-2.63 36.5-1.8 36.9-1.15 37.3-0.5 38.1-0.5L38.1-0.5Q39.05-0.5 40.05-1.48 41.05-2.45 42.07-4 43.1-5.55 44.05-7.35 45-9.15 45.82-10.8 46.65-12.45 47.2-13.55L47.2-13.55Q47.5-13.5 48.07-13.35 48.65-13.2 49.12-12.95 49.6-12.7 49.6-12.25L49.6-12.25Q49.6-12.05 49.1-10.93 48.6-9.8 47.92-8.18 47.25-6.55 46.75-4.9 46.25-3.25 46.25-2L46.25-2Q46.25-1.1 46.62-0.55 47 0 47.9 0L47.9 0Q48.95 0 50.45-0.95 51.95-1.9 53.5-3.73 55.05-5.55 56.25-8.1L56.25-8.1 56.9-7.65Q55.85-4.95 54.15-2.88 52.45-0.8 50.55 0.35 48.65 1.5 46.85 1.5L46.85 1.5Q45.55 1.5 44.77 1 44 0.5 43.67-0.35 43.35-1.2 43.35-2.2L43.35-2.2Q43.35-2.8 43.45-3.43 43.55-4.05 43.7-4.7L43.7-4.7Q42.8-3.05 41.75-1.63 40.7-0.2 39.55 0.65 38.4 1.5 37.15 1.5ZM58.9 1.3L58.9 1.3Q56.95 1.3 56 0.08 55.05-1.15 55.05-2.9L55.05-2.9Q55.05-4.05 55.47-5.8 55.9-7.55 56.59-9.47 57.3-11.4 58.22-13.1 59.15-14.8 60.2-15.88 61.25-16.95 62.25-16.95L62.25-16.95Q62.7-16.95 63.02-16.68 63.34-16.4 63.34-15.85L63.34-15.85Q63.34-15.25 62.57-13.9 61.8-12.55 60.75-10.8 59.7-9.05 58.92-7.13 58.15-5.2 58.15-3.45L58.15-3.45Q58.15-1.65 58.75-1.05 59.34-0.45 60.59-0.45L60.59-0.45Q62.3-0.45 64.22-2.15 66.15-3.85 68.3-8.1L68.3-8.1 68.75-7.6Q67.3-3.3 64.57-1 61.84 1.3 58.9 1.3ZM64.9-21.6L64.9-21.6Q64.09-21.6 63.47-22 62.84-22.4 62.84-23.25L62.84-23.25Q62.84-24.3 64.07-25.08 65.3-25.85 66.5-25.85L66.5-25.85Q67.25-25.85 67.7-25.5 68.15-25.15 68.15-24.3L68.15-24.3Q68.15-23.35 67.12-22.48 66.09-21.6 64.9-21.6ZM67.09 14L67.09 14Q65.54 14 64.67 13.43 63.79 12.85 63.79 11.45L63.79 11.45Q63.79 9.85 64.87 8.47 65.94 7.1 67.74 5.85 69.54 4.6 71.72 3.33 73.89 2.05 76.04 0.6L76.04 0.6Q76.04-1.2 75.29-2.7 74.54-4.2 72.59-5.75L72.59-5.75Q74.34-6.25 75.57-7.5 76.79-8.75 77.42-10.28 78.04-11.8 78.04-13.1L78.04-13.1Q78.04-14.25 77.57-15 77.09-15.75 76.09-15.75L76.09-15.75Q74.44-15.75 73.14-14.5 71.84-13.25 70.74-11.2 69.64-9.15 68.49-6.7L68.49-6.7 67.89-7.2Q68.99-10.2 70.17-12.55 71.34-14.9 72.94-16.28 74.54-17.65 76.79-17.65L76.79-17.65Q78.49-17.65 79.72-16.55 80.94-15.45 80.94-13.55L80.94-13.55Q80.94-11.75 80.09-10.2 79.24-8.65 77.89-7.48 76.54-6.3 75.04-5.55L75.04-5.55Q76.34-4.55 77.22-3.43 78.09-2.3 78.54-1.05L78.54-1.05Q80.44-2.5 81.92-4.23 83.39-5.95 84.09-8.1L84.09-8.1 84.64-7.5Q83.94-5.25 82.39-3.43 80.84-1.6 78.84-0.1L78.84-0.1Q78.94 0.25 78.99 0.7 79.04 1.15 79.04 1.55L79.04 1.55Q79.04 3.8 78.04 6.03 77.04 8.25 75.34 10.05 73.64 11.85 71.52 12.93 69.39 14 67.09 14ZM66.74 12.55L66.74 12.55Q67.64 12.55 69.09 11.83 70.54 11.1 72.04 9.73 73.54 8.35 74.64 6.35 75.74 4.35 75.99 1.75L75.99 1.75Q73.99 3 72.07 4.13 70.14 5.25 68.59 6.33 67.04 7.4 66.12 8.53 65.19 9.65 65.19 10.9L65.19 10.9Q65.19 11.75 65.64 12.15 66.09 12.55 66.74 12.55ZM82.94 14L82.94 14Q81.39 14 80.52 13.43 79.64 12.85 79.64 11.45L79.64 11.45Q79.64 9.85 80.72 8.47 81.79 7.1 83.59 5.85 85.39 4.6 87.56 3.33 89.74 2.05 91.89 0.6L91.89 0.6Q91.89-1.2 91.14-2.7 90.39-4.2 88.44-5.75L88.44-5.75Q90.19-6.25 91.41-7.5 92.64-8.75 93.27-10.28 93.89-11.8 93.89-13.1L93.89-13.1Q93.89-14.25 93.41-15 92.94-15.75 91.94-15.75L91.94-15.75Q90.29-15.75 88.99-14.5 87.69-13.25 86.59-11.2 85.49-9.15 84.34-6.7L84.34-6.7 83.74-7.2Q84.84-10.2 86.02-12.55 87.19-14.9 88.79-16.28 90.39-17.65 92.64-17.65L92.64-17.65Q94.34-17.65 95.56-16.55 96.79-15.45 96.79-13.55L96.79-13.55Q96.79-11.75 95.94-10.2 95.09-8.65 93.74-7.48 92.39-6.3 90.89-5.55L90.89-5.55Q92.19-4.55 93.06-3.43 93.94-2.3 94.39-1.05L94.39-1.05Q96.29-2.5 97.77-4.23 99.24-5.95 99.94-8.1L99.94-8.1 100.49-7.5Q99.79-5.25 98.24-3.43 96.69-1.6 94.69-0.1L94.69-0.1Q94.79 0.25 94.84 0.7 94.89 1.15 94.89 1.55L94.89 1.55Q94.89 3.8 93.89 6.03 92.89 8.25 91.19 10.05 89.49 11.85 87.36 12.93 85.24 14 82.94 14ZM82.59 12.55L82.59 12.55Q83.49 12.55 84.94 11.83 86.39 11.1 87.89 9.73 89.39 8.35 90.49 6.35 91.59 4.35 91.84 1.75L91.84 1.75Q89.84 3 87.91 4.13 85.99 5.25 84.44 6.33 82.89 7.4 81.97 8.53 81.04 9.65 81.04 10.9L81.04 10.9Q81.04 11.75 81.49 12.15 81.94 12.55 82.59 12.55ZM102.64 1.3L102.64 1.3Q100.69 1.3 99.74 0.08 98.79-1.15 98.79-2.9L98.79-2.9Q98.79-4.05 99.21-5.8 99.64-7.55 100.34-9.47 101.04-11.4 101.96-13.1 102.89-14.8 103.94-15.88 104.99-16.95 105.99-16.95L105.99-16.95Q106.44-16.95 106.76-16.68 107.09-16.4 107.09-15.85L107.09-15.85Q107.09-15.25 106.31-13.9 105.54-12.55 104.49-10.8 103.44-9.05 102.66-7.13 101.89-5.2 101.89-3.45L101.89-3.45Q101.89-1.65 102.49-1.05 103.09-0.45 104.34-0.45L104.34-0.45Q106.04-0.45 107.96-2.15 109.89-3.85 112.04-8.1L112.04-8.1 112.49-7.6Q111.04-3.3 108.31-1 105.59 1.3 102.64 1.3ZM108.64-21.6L108.64-21.6Q107.84-21.6 107.21-22 106.59-22.4 106.59-23.25L106.59-23.25Q106.59-24.3 107.81-25.08 109.04-25.85 110.24-25.85L110.24-25.85Q110.99-25.85 111.44-25.5 111.89-25.15 111.89-24.3L111.89-24.3Q111.89-23.35 110.86-22.48 109.84-21.6 108.64-21.6Z" opacity="1" transform="matrix(1,0,0,1,0,0)" fill="#77d4fc" class="wordmark-text-0" data-fill-palette-color="primary" id="text-0"></path></svg></g></svg></g></svg></g></svg></g><g><svg viewBox="0 0 244.43135999999998 244.43135999999998" height="244.43135999999998" width="244.43135999999998"><g><svg xmlns="http://www.w3.org/2000/svg" xmlns:xlink="http://www.w3.org/1999/xlink" xml:space="preserve" style="shape-rendering:geometricPrecision;text-rendering:geometricPrecision;image-rendering:optimizeQuality;" viewBox="0 0 6 6" x="0" y="0" fill-rule="evenodd" clip-rule="evenodd" width="244.43135999999998" height="244.43135999999998" class="icon-icon-0" data-fill-palette-color="accent" id="icon-0"><g fill="#4b91f1" data-fill-palette-color="accent"><g fill="#4b91f1" data-fill-palette-color="accent"><path class="" d="M1.365 0.853l4.096 0 0 5.12-4.096 0 0-5.12z m0.428 0.764l2.452 0 0 0.107-2.452 0 0-0.107z m0 0.872l2.452 0 0 0.106-2.452 0 0-0.106z m0 0.871l2.452 0 0 0.107-2.452 0 0-0.107z m0 0.871l2.452 0 0 0.107-2.452 0 0-0.107z m0 0.872l2.452 0 0 0.107-2.452 0 0-0.107z m2.805-3.704l0.436 0c0.029 0 0.053 0.024 0.053 0.053l0 0.436c0 0.029-0.024 0.053-0.053 0.054l-0.436 0c-0.029 0-0.053-0.024-0.053-0.054l0-0.436c0-0.029 0.024-0.053 0.053-0.053z m0 0.872l0.436 0c0.029 0 0.053 0.024 0.053 0.053l0 0.436c0 0.029-0.024 0.053-0.053 0.053l-0.436 0c-0.029 0-0.053-0.024-0.053-0.053l0-0.436c0-0.029 0.024-0.053 0.053-0.053z m0 0.871l0.436 0c0.029 0 0.053 0.024 0.053 0.053l0 0.436c0 0.029-0.024 0.053-0.053 0.054l-0.436 0c-0.029 0-0.053-0.024-0.053-0.054l0-0.436c0-0.029 0.024-0.053 0.053-0.053z m0 0.872l0.436 0c0.029 0 0.053 0.024 0.053 0.053l0 0.436c0 0.029-0.024 0.053-0.053 0.053l-0.436 0c-0.029 0-0.053-0.024-0.053-0.053l0-0.436c0-0.029 0.024-0.053 0.053-0.053z m0 0.871l0.436 0c0.029 0 0.053 0.024 0.053 0.053l0 0.436c0 0.029-0.024 0.053-0.053 0.054l-0.436 0c-0.029 0-0.053-0.024-0.053-0.054l0-0.436c0-0.029 0.024-0.053 0.053-0.053z" fill="#4b91f1" data-fill-palette-color="accent"></path><polygon class="" points="4.73832,1.58985 4.64977,1.6784 4.74074,1.76937 4.785,1.81365 4.82928,1.76937 4.98092,1.61775 4.89237,1.5292 4.78502,1.63655 " fill="#4b91f1" data-fill-palette-color="accent"></polygon></g></g><rect class="" width="6.82666" height="6.82666" fill="none"></rect></svg></g></svg></g></svg></g><defs></defs></svg><rect width="395.5199999999999" height="130.5810299740285" fill="none" stroke="none" visibility="hidden"></rect></g></svg></g></svg>